<mxfile host="Electron" agent="Mozilla/5.0 (Macintosh; Intel Mac OS X 10_15_7) AppleWebKit/537.36 (KHTML, like Gecko) draw.io/24.7.8 Chrome/128.0.6613.36 Electron/32.0.1 Safari/537.36" version="24.7.8">
  <diagram name="Page-1" id="j2zhnnx7g6z43chITOh1">
    <mxGraphModel dx="1114" dy="784" grid="1" gridSize="10" guides="1" tooltips="1" connect="1" arrows="1" fold="1" page="1" pageScale="1" pageWidth="1169" pageHeight="827" math="0" shadow="0">
      <root>
        <mxCell id="0" />
        <mxCell id="1" parent="0" />
        <mxCell id="Z94-28xxeooXAz-iW8fE-1" value="" style="verticalLabelPosition=bottom;verticalAlign=top;html=1;shadow=0;dashed=0;strokeWidth=1;shape=mxgraph.android.phone2;strokeColor=#c0c0c0;" parent="1" vertex="1">
          <mxGeometry x="280" y="40" width="330" height="700" as="geometry" />
        </mxCell>
        <mxCell id="Z94-28xxeooXAz-iW8fE-2" value="Image" style="rounded=0;whiteSpace=wrap;html=1;" parent="1" vertex="1">
          <mxGeometry x="315" y="120" width="260" height="190" as="geometry" />
        </mxCell>
        <mxCell id="Z94-28xxeooXAz-iW8fE-3" value="&lt;h1 style=&quot;margin-top: 0px;&quot;&gt;Heading&lt;/h1&gt;&lt;p&gt;Description textuelle de la vue&lt;/p&gt;" style="text;html=1;whiteSpace=wrap;overflow=hidden;rounded=0;" parent="1" vertex="1">
          <mxGeometry x="315" y="330" width="180" height="120" as="geometry" />
        </mxCell>
        <mxCell id="Z94-28xxeooXAz-iW8fE-4" value="Bouton d&#39;action" style="rounded=1;html=1;shadow=0;dashed=0;whiteSpace=wrap;fontSize=10;fillColor=#E6E6E6;align=center;strokeColor=#E6E6E6;fontColor=#333333;" parent="1" vertex="1">
          <mxGeometry x="315" y="440" width="255" height="30" as="geometry" />
        </mxCell>
        <mxCell id="Z94-28xxeooXAz-iW8fE-5" value="Bouton d&#39;action" style="rounded=1;html=1;shadow=0;dashed=0;whiteSpace=wrap;fontSize=10;fillColor=#E6E6E6;align=center;strokeColor=#E6E6E6;fontColor=#333333;" parent="1" vertex="1">
          <mxGeometry x="315" y="480" width="255" height="30" as="geometry" />
        </mxCell>
        <mxCell id="Z94-28xxeooXAz-iW8fE-6" value="Bouton d&#39;action" style="rounded=1;html=1;shadow=0;dashed=0;whiteSpace=wrap;fontSize=10;fillColor=#E6E6E6;align=center;strokeColor=#E6E6E6;fontColor=#333333;" parent="1" vertex="1">
          <mxGeometry x="315" y="520" width="255" height="30" as="geometry" />
        </mxCell>
        <mxCell id="Z94-28xxeooXAz-iW8fE-7" value="Bouton d&#39;action" style="rounded=1;html=1;shadow=0;dashed=0;whiteSpace=wrap;fontSize=10;fillColor=#E6E6E6;align=center;strokeColor=#E6E6E6;fontColor=#333333;" parent="1" vertex="1">
          <mxGeometry x="315" y="610" width="255" height="30" as="geometry" />
        </mxCell>
        <mxCell id="Z94-28xxeooXAz-iW8fE-8" value=".&lt;div&gt;.&lt;/div&gt;&lt;div&gt;.&lt;/div&gt;" style="text;html=1;align=center;verticalAlign=middle;whiteSpace=wrap;rounded=0;" parent="1" vertex="1">
          <mxGeometry x="410" y="560" width="60" height="40" as="geometry" />
        </mxCell>
      </root>
    </mxGraphModel>
  </diagram>
</mxfile>
